<?xml version="1.0" standalone="no"?>
<svg xmlns="http://www.w3.org/2000/svg" viewBox="0 0 119.55999999999999 49.96" width="119.55999999999999" height="49.96"><rect fill="#000000" width="119.55999999999999" height="49.96" x="0" y="0"></rect><g fill="white" color="white" transform="translate(12 12.277) scale(0.5523405)"><svg width="47.0" height="46.0" x="0.0" y="0.0" viewBox="0 0 47 46"><path fill="currentColor" fill-rule="nonzero" d="M44.78 1.64c-3.27-3.27-12.02-.08-21.36 7.22-9.34-7.3-18.09-10.5-21.36-7.22C-1.22 4.91 1.98 13.66 9.27 23 1.98 32.34-1.22 41.09 2.06 44.37c3.27 3.27 12.02.08 21.36-7.22 9.34 7.29 18.09 10.49 21.36 7.22 3.27-3.27.08-12.02-7.22-21.36 7.3-9.35 10.5-18.1 7.22-21.37zm-3.69 2.48c.69 0 .98.14 1.02.18.19.19.68 2.33-1.68 7.26-1.28 2.67-3.1 5.54-5.31 8.44-1.3-1.51-2.7-3.02-4.2-4.51-1.49-1.49-3-2.89-4.51-4.19 6.23-4.72 11.69-7.18 14.68-7.18zM32.71 23a80.65 80.65 0 0 1-9.29 9.29 82.406 82.406 0 0 1-4.84-4.45 80.65 80.65 0 0 1-4.45-4.83 79.34 79.34 0 0 1 4.45-4.84 84.12 84.12 0 0 1 4.83-4.46 79.34 79.34 0 0 1 9.3 9.29zM4.54 5.33c0-.69.14-.98.18-1.02.19-.19 2.33-.68 7.26 1.69 2.67 1.28 5.54 3.1 8.44 5.31a87.109 87.109 0 0 0-4.51 4.2c-1.49 1.49-2.89 3-4.19 4.51C7 13.78 4.54 8.32 4.54 5.33zm1.21 36.55c-.69 0-.99-.15-1.02-.18-.19-.19-.68-2.33 1.69-7.26 1.28-2.67 3.1-5.54 5.31-8.44 1.31 1.51 2.71 3.02 4.2 4.51 1.49 1.49 3 2.89 4.51 4.19-6.24 4.73-11.7 7.18-14.69 7.18zm36.55-1.21c0 .69-.15.98-.18 1.02-.19.19-2.33.68-7.26-1.68-2.67-1.28-5.54-3.1-8.44-5.31 1.51-1.3 3.02-2.7 4.51-4.2 1.49-1.49 2.89-3 4.2-4.51 4.71 6.23 7.17 11.69 7.17 14.68z"></path></svg></g><path fill="white" fill-rule="nonzero" d="M5.16 23.60L6.60 23.72Q6.68 24.36 6.68 24.82Q6.68 25.28 6.56 25.96L6.56 25.96Q5.16 25.92 3.32 25.92Q1.48 25.92 0.12 25.96L0.12 25.96Q0 25.36 0 24.90Q0 24.44 0.08 23.72L0.08 23.72L1.48 23.60Q1.80 19.28 1.80 12.58Q1.80 5.88 1.44 2.56L1.44 2.56L0.08 2.44Q0 1.80 0 1.34Q0 0.88 0.12 0.20L0.12 0.20Q1.52 0.24 3.36 0.24Q5.20 0.24 6.56 0.20L6.56 0.20Q6.68 0.80 6.68 1.26Q6.68 1.72 6.60 2.44L6.60 2.44L5.08 2.56Q4.80 6.08 4.80 11.56L4.80 11.56Q6.96 11.80 10 11.80Q13.04 11.80 15.80 11.48L15.80 11.48Q15.72 5.12 15.44 2.56L15.44 2.56L14.08 2.44Q14.00 1.80 14.00 1.34Q14.00 0.88 14.12 0.20L14.12 0.20Q15.52 0.24 17.36 0.24Q19.20 0.24 20.56 0.20L20.56 0.20Q20.68 0.80 20.68 1.26Q20.68 1.72 20.60 2.44L20.60 2.44L19.08 2.56Q18.80 5.80 18.80 12.60Q18.80 19.40 19.16 23.60L19.16 23.60L20.60 23.72Q20.68 24.36 20.68 24.82Q20.68 25.28 20.56 25.96L20.56 25.96Q19.16 25.92 17.32 25.92Q15.48 25.92 14.12 25.96L14.12 25.96Q14.00 25.36 14.00 24.90Q14.00 24.44 14.08 23.72L14.08 23.72L15.48 23.60Q15.72 20.12 15.80 14.68L15.80 14.68Q13.24 14.40 10 14.40Q6.76 14.40 4.80 14.68L4.80 14.68Q4.88 20.36 5.16 23.60L5.16 23.60ZM32.88 2.44L31.36 2.56Q31.08 5.80 31.08 12.60Q31.08 19.40 31.44 23.60L31.44 23.60L32.88 23.72Q32.96 24.36 32.96 24.82Q32.96 25.28 32.84 25.96L32.84 25.96Q31.44 25.92 29.60 25.92Q27.76 25.92 26.40 25.96L26.40 25.96Q26.28 25.36 26.28 24.90Q26.28 24.44 26.36 23.72L26.36 23.72L27.76 23.60Q28.08 19.28 28.08 12.58Q28.08 5.88 27.72 2.56L27.72 2.56L26.36 2.44Q26.28 1.80 26.28 1.34Q26.28 0.88 26.40 0.20L26.40 0.20Q27.80 0.24 29.64 0.24Q31.48 0.24 32.84 0.20L32.84 0.20Q32.96 0.80 32.96 1.26Q32.96 1.72 32.88 2.44L32.88 2.44ZM47.24 2.96L47.24 2.96Q46.96 6.08 46.96 12.98Q46.96 19.88 47.28 23.60L47.28 23.60L49.60 23.84Q49.68 24.48 49.68 24.86Q49.68 25.24 49.56 25.96L49.56 25.96Q48.12 25.92 45.42 25.92Q42.72 25.92 41.48 25.96L41.48 25.96Q41.36 25.36 41.36 24.96Q41.36 24.56 41.44 23.84L41.44 23.84L43.64 23.60Q43.96 19.32 43.96 12.74Q43.96 6.16 43.60 2.96L43.60 2.96Q42.04 3 39.28 3.24L39.28 3.24L39.16 6.20Q38.52 6.32 37.96 6.32Q37.40 6.32 36.92 6.28L36.92 6.28Q36.80 3 36.56 0.20L36.56 0.20L36.76 0Q39.72 0.36 46.24 0.36Q52.76 0.36 54.40 0L54.40 0L54.60 0.20Q54.32 3.28 54.24 5.88L54.24 5.88Q53.76 5.92 53.22 5.92Q52.68 5.92 52.00 5.80L52.00 5.80L51.88 3.12Q50.20 3.04 47.24 2.96Z" transform="translate(52.96 12) scale(1)"></path></svg>